<svg width="1200" height="1200" xmlns="http://www.w3.org/2000/svg" xmlns:xlink="http://www.w3.org/1999/xlink" version="1.1"><g transform="scale(12.598572305343815) translate(-2.3755556212531195, -2.3755556212531195)">            <linearGradient id="SvgjsLinearGradient1013"><stop id="SvgjsStop1014" stop-color="#7f00ff" offset="0"/><stop id="SvgjsStop1015" stop-color="#e100ff" offset="1"/></linearGradient>            <g fill="url(#SvgjsLinearGradient1013)"><linearGradient id="SvgjsLinearGradient1013"><stop id="SvgjsStop1014" stop-color="#7f00ff" offset="0"/><stop id="SvgjsStop1015" stop-color="#e100ff" offset="1"/></linearGradient><g xmlns="http://www.w3.org/2000/svg"><path d="M50,92.862C26.365,92.862,7.138,73.634,7.138,50C7.138,26.366,26.365,7.138,50,7.138c23.635,0,42.862,19.228,42.862,42.861   C92.862,73.634,73.635,92.862,50,92.862z M50,11.138c-21.429,0-38.862,17.434-38.862,38.861c0,21.429,17.433,38.862,38.862,38.862   S88.862,71.428,88.862,50C88.862,28.572,71.428,11.138,50,11.138z"/><circle cx="50" cy="23.668" r="4.44"/><circle cx="37.544" cy="27.926" r="4.44"/><circle cx="62.456" cy="27.926" r="4.44"/><path d="M50,85.049c1.9,0,3.763-0.157,5.582-0.45L50,33.063l-5.582,51.537C46.237,84.892,48.1,85.049,50,85.049z"/><path d="M29.959,78.729L35.375,36L20.957,69.6C23.372,73.167,26.431,76.261,29.959,78.729z"/><path d="M70.041,78.729L64.625,36l14.418,33.6C76.628,73.167,73.569,76.261,70.041,78.729z"/></g></g>        </g></svg>